<svg width="62" height="62" viewBox="0 0 62 62" fill="none" xmlns="http://www.w3.org/2000/svg">
<path d="M54.6688 40.272C55.3243 40.272 55.9155 40.6657 56.1678 41.2702L58.8732 47.7523C59.3194 48.8214 58.5334 50 57.3743 50H33.045C32.148 50 31.4209 49.2734 31.4209 48.3771V13.6229C31.4209 12.7266 32.148 12 33.045 12H41.962C42.8589 12 43.586 12.7266 43.586 13.6229V38.6491C43.586 39.5454 44.3131 40.272 45.2101 40.272H54.6688Z" fill="url(#paint0_linear_285_303)"/>
<path d="M20.834 26.8453C21.7309 26.8453 22.4581 27.572 22.4581 28.4683V34.0384C22.4581 34.9347 21.7309 35.6613 20.834 35.6613H16.7892C15.8922 35.6613 15.1651 36.3879 15.1651 37.2843V38.6491C15.1651 39.5454 15.8922 40.272 16.7892 40.272H24.9249C25.5804 40.272 26.1716 40.6657 26.4239 41.2702L29.1293 47.7523C29.5755 48.8214 28.7895 50 27.6304 50H4.62405C3.72711 50 3 49.2734 3 48.3771V13.6229C3 12.7266 3.72711 12 4.62405 12H27.704C28.7541 12 29.5281 12.9807 29.2834 14.0011L27.7291 20.4832C27.554 21.2132 26.9009 21.728 26.1497 21.728H16.7892C15.8922 21.728 15.1651 22.4546 15.1651 23.3509V25.2224C15.1651 26.1187 15.8922 26.8453 16.7892 26.8453H20.834Z" fill="url(#paint1_linear_285_303)"/>
<defs>
<linearGradient id="paint0_linear_285_303" x1="39.5412" y1="20.5204" x2="11.5412" y2="42.8546" gradientUnits="userSpaceOnUse">
<stop stop-color="#34C5FF"/>
<stop offset="1" stop-color="#FF1B6B"/>
</linearGradient>
<linearGradient id="paint1_linear_285_303" x1="39.5412" y1="20.5204" x2="11.5412" y2="42.8546" gradientUnits="userSpaceOnUse">
<stop stop-color="#34C5FF"/>
<stop offset="1" stop-color="#FF1B6B"/>
</linearGradient>
</defs>
</svg>
